# xmcd CD database file
#
# Track frame offsets:
#	150
#	20169
#	43703
#	61665
#	81199
#	100898
#	121539
#	147737
#	165273
#	188403
#	206584
#	232852
#	251581
#
# Disc length: 3667 seconds
#
# Revision: 1
# Processed by: cddbd v1.5PL3 Copyright (c) Steve Scherf et al.
# Submitted via: CDex 1.51
#
DISCID=a10e510d
DTITLE=Ferenczi György és a Herfli Davidson - Neomatyó
DYEAR=2003
DGENRE=Blues
TTITLE0=Csatadal
TTITLE1=Túlhevített madár
TTITLE2=Tiráj
TTITLE3=Balkán boleró
TTITLE4=Czinege remix
TTITLE5=Thanks for Hendrix
TTITLE6=Zoolee az állat
TTITLE7=Toborzó
TTITLE8=Csikorog a jármü
TTITLE9=Hahó
TTITLE10=Csikós rájdersz
TTITLE11=A nö olyan ...
TTITLE12=Ha tele a kocsma
EXTD=YEAR: 2003
EXTT0=
EXTT1=
EXTT2=
EXTT3=
EXTT4=
EXTT5=
EXTT6=
EXTT7=
EXTT8=
EXTT9=
EXTT10=
EXTT11=
EXTT12=
PLAYORDER=
